<?xml version="1.0" encoding="UTF-8"?>
<svg width="82px" height="53px" viewBox="0 0 82 53" version="1.1" xmlns="http://www.w3.org/2000/svg" xmlns:xlink="http://www.w3.org/1999/xlink">
    <title>logo</title>
    <g id="Wapik" stroke="none" stroke-width="1" fill="none" fill-rule="evenodd">
        <g id="Home" transform="translate(-150.000000, -28.000000)">
            <g id="logo" transform="translate(150.000000, 28.000000)">
                <path d="M71.358794,42.6944083 C76.2835269,41.6270481 81.6,37.6946684 81.6,30.4478544 C81.6,23.2572172 76.8431557,19.2686606 68.7285389,15.673342 C62.5166599,12.9206762 60.0542934,12.0218466 58.4873329,8.08946684 C57.1442239,4.71885566 58.43137,0.73029909 60.9496994,0 C55.0176347,0.505591678 50.3727161,6.62886866 51.324085,13.4262679 C52.0516024,18.4821847 54.4020431,22.0213264 62.7964742,25.5042913 C69.1762419,28.1446034 71.7505341,29.4928479 73.597309,32.3578674 C75.7798611,35.7284785 74.3248263,41.1776333 71.358794,42.6944083 Z M79.1935964,14.3812744 L79.1376335,0.337061118 C77.570673,3.5953186 65.2028778,0.112353706 65.2028778,0.112353706 C76.9550814,6.79739922 79.1935964,14.3812744 79.1935964,14.3812744 L79.1935964,14.3812744 Z M52.4993054,43.2 C54.010303,39.2114434 67.3854299,42.5820546 67.6652443,42.6944083 C55.1855233,36.7958388 52.3314167,25.8413524 52.3314167,25.8413524 L52.3314167,25.8413524 L52.4993054,43.2 Z" id="S" fill="#720B98" fill-rule="nonzero"></path>
                <path d="M20.8919255,42.4 L20.8919255,0 L9.6,0 L10.773913,0.848 L10.773913,41.552 L9.6,42.4 L20.8919255,42.4 Z M26.5378882,42.4 C34.1962733,41.9477333 45.6,35.9552 45.6,21.5392 C45.6,7.4624 34.084472,0.6784 26.4819876,0 C28.3826087,0.734933333 33.0223602,2.99626667 33.357764,12.4938667 C33.357764,12.4938667 33.6372671,17.4122667 33.6372671,21.5392 C33.6372671,25.7226667 33.357764,30.3584 33.357764,30.3584 C32.9664596,39.856 28.3826087,41.7781333 26.5378882,42.4 Z" id="D" fill="#720B98" fill-rule="nonzero"></path>
                <path d="M5,19.2 L5,47.9 L44.9,47.9 L44.9,52.9 L0.1,52.9 L0.1,52.8 L0,52.8 L0,19.2 L5,19.2 Z" id="Combined-Shape" fill="#4E4351"></path>
            </g>
        </g>
    </g>
</svg>