<?xml version="1.0" encoding="UTF-8"?>
<svg width="73px" height="44px" viewBox="0 0 73 44" version="1.1" xmlns="http://www.w3.org/2000/svg" xmlns:xlink="http://www.w3.org/1999/xlink">
    <title>logo</title>
    <g id="Wapik" stroke="none" stroke-width="1" fill="none" fill-rule="evenodd">
        <g id="Home" transform="translate(-159.000000, -28.000000)" fill="#720B98" fill-rule="nonzero">
            <g id="logo" transform="translate(159.000000, 28.000000)">
                <path d="M62.358794,42.6944083 C67.2835269,41.6270481 72.6,37.6946684 72.6,30.4478544 C72.6,23.2572172 67.8431557,19.2686606 59.7285389,15.673342 C53.5166599,12.9206762 51.0542934,12.0218466 49.4873329,8.08946684 C48.1442239,4.71885566 49.43137,0.73029909 51.9496994,0 C46.0176347,0.505591678 41.3727161,6.62886866 42.324085,13.4262679 C43.0516024,18.4821847 45.4020431,22.0213264 53.7964742,25.5042913 C60.1762419,28.1446034 62.7505341,29.4928479 64.597309,32.3578674 C66.7798611,35.7284785 65.3248263,41.1776333 62.358794,42.6944083 Z M70.1935964,14.3812744 L70.1376335,0.337061118 C68.570673,3.5953186 56.2028778,0.112353706 56.2028778,0.112353706 C67.9550814,6.79739922 70.1935964,14.3812744 70.1935964,14.3812744 L70.1935964,14.3812744 Z M43.4993054,43.2 C45.010303,39.2114434 58.3854299,42.5820546 58.6652443,42.6944083 C46.1855233,36.7958388 43.3314167,25.8413524 43.3314167,25.8413524 L43.3314167,25.8413524 L43.4993054,43.2 Z" id="S"></path>
                <path d="M11.8919255,42.4 L11.8919255,0 L0.6,0 L1.77391304,0.848 L1.77391304,41.552 L0.6,42.4 L11.8919255,42.4 Z M17.5378882,42.4 C25.1962733,41.9477333 36.6,35.9552 36.6,21.5392 C36.6,7.4624 25.084472,0.6784 17.4819876,0 C19.3826087,0.734933333 24.0223602,2.99626667 24.357764,12.4938667 C24.357764,12.4938667 24.6372671,17.4122667 24.6372671,21.5392 C24.6372671,25.7226667 24.357764,30.3584 24.357764,30.3584 C23.9664596,39.856 19.3826087,41.7781333 17.5378882,42.4 Z" id="D"></path>
            </g>
        </g>
    </g>
</svg>