<?xml version="1.0" encoding="UTF-8"?>
<svg width="153px" height="153px" viewBox="0 0 153 153" version="1.1" xmlns="http://www.w3.org/2000/svg" xmlns:xlink="http://www.w3.org/1999/xlink">
    <title>others_icon</title>
    <g id="Wapik" stroke="none" stroke-width="1" fill="none" fill-rule="evenodd">
        <g id="Home-Copy" transform="translate(-989.000000, -801.000000)">
            <g id="Group-10" transform="translate(942.000000, 801.000000)">
                <g id="others_icon" transform="translate(47.000000, 0.000000)">
                    <circle id="Oval" stroke="#E9A70E" stroke-width="0.5" fill="#FFFFFF" cx="76.5" cy="76.5" r="76.25"></circle>
                    <text id="Others" font-family="Montserrat-Medium, Montserrat" font-size="18" font-weight="400" fill="#000000">
                        <tspan x="46.5" y="46">Others</tspan>
                    </text>
                    <g id="skill" transform="translate(54.500000, 60.000000)" fill-rule="nonzero">
                        <g id="Group">
                            <path d="M20.6254395,65 C22.4460742,65 23.9219043,63.5241699 23.9219043,61.7035352 L23.9219043,51.6591309 L12.8627637,51.6591309 L12.8627637,61.7035352 C12.8627637,63.524043 14.3385937,65 16.1592285,65 L20.6254395,65 Z" id="Path" fill="#407093"></path>
                            <path d="M23.5513281,51.6591309 L23.5513281,61.7035352 C23.5513281,63.5241699 22.075498,65 20.2548633,65 L28.5282715,65 C30.3487793,65 31.8247363,63.5241699 31.8247363,61.7035352 L31.8247363,51.6591309 L23.5513281,51.6591309 Z" id="Path" fill="#365E7D"></path>
                            <path d="M31.4587305,37.4796094 C35.1391016,33.4465625 37.3836328,28.0808887 37.3836328,22.1905176 C37.3836328,11.8955078 30.5268945,3.20391602 21.1314746,0.428466797 L18.2139648,0.386445313 C7.8587793,2.32844727 0.023359375,11.488623 0.0715057924,22.3733301 C0.0973730469,28.1320508 2.30864258,33.3741992 5.91880859,37.3136816 C9.98575195,41.751582 12.5551562,47.3163184 13.3150977,53.2263672 L23.9622754,53.2263672 C24.8213672,47.3806836 27.4287305,41.8956738 31.4587305,37.4796094 Z" id="Path" fill="#FFE07D"></path>
                            <path d="M36.3426172,22.2722754 C36.3426172,28.0537207 34.1395996,33.3202441 30.5272754,37.2788965 C26.4590625,41.7371094 23.8670605,47.3048926 23.1007715,53.2264941 L31.3741797,53.2264941 C32.1404687,47.3048926 34.7324707,41.7371094 38.8006836,37.2788965 C42.4130078,33.3203711 44.6160254,28.0538477 44.6160254,22.2722754 C44.6160254,9.91681641 34.5552441,-0.0888671875 22.1789648,0.000634765625 C20.8256445,0.0104101563 19.5006348,0.142949219 18.2138379,0.386445313 C28.5342383,2.32844727 36.3426172,11.3876953 36.3426172,22.2722754 L36.3426172,22.2722754 Z" id="Path" fill="#FFD064"></path>
                            <g transform="translate(9.394531, 45.957031)" id="Path">
                                <path d="M18.1521387,2.45476563 C18.1521387,1.1253125 17.0744336,0.0474804688 15.7449805,0.0474804688 L2.42505859,0.0474804688 C1.09547852,0.0474804688 0.0177734375,1.1253125 0.0177734375,2.45476563 C0.0177734375,3.78421875 1.09560547,4.86205078 2.42505859,4.86205078 L15.7448535,4.86205078 C17.0744336,4.86205078 18.1521387,3.78421875 18.1521387,2.45476563 L18.1521387,2.45476563 Z" fill="#E4F6FF"></path>
                                <path d="M18.1521387,7.26933594 C18.1521387,5.93988281 17.0743066,4.86205078 15.7448535,4.86205078 L2.42518555,4.86205078 C1.09560547,4.86205078 0.0179003906,5.93988281 0.0179003906,7.26933594 C0.0179003906,8.59891602 1.09573242,9.67662109 2.42518555,9.67662109 L15.7451074,9.67662109 C17.0744336,9.67662109 18.1521387,8.59891602 18.1521387,7.26933594 Z" fill="#D8E2F1"></path>
                                <path d="M15.7448535,14.4913184 C17.0743066,14.4913184 18.1521387,13.4134863 18.1521387,12.0840332 C18.1521387,10.7545801 17.0743066,9.67674805 15.7448535,9.67674805 L15.7449805,9.67674805 L2.42505859,9.67674805 C1.09547852,9.67674805 0.0177734375,10.7545801 0.0177734375,12.0840332 C0.0177734375,13.4136133 1.09560547,14.4913184 2.42505859,14.4913184 L15.7448535,14.4913184 Z" fill="#E4F6FF"></path>
                            </g>
                            <g transform="translate(24.501953, 45.957031)" id="Path">
                                <path d="M8.36595703,0.0473535156 L0.0925488281,0.0473535156 C1.42212891,0.0473535156 2.49983398,1.12518555 2.49983398,2.45463867 C2.49983398,3.78421875 1.42200195,4.86192383 0.0925488281,4.86192383 L8.36595703,4.86192383 C9.69553711,4.86192383 10.7732422,3.7840918 10.7732422,2.45463867 C10.7732422,1.12518555 9.69541016,0.0473535156 8.36595703,0.0473535156 Z" fill="#D8E2F1"></path>
                                <path d="M8.36595703,4.86205078 L0.0925488281,4.86205078 C1.42212891,4.86205078 2.49983398,5.93988281 2.49983398,7.26933594 C2.49983398,8.59891602 1.42200195,9.67662109 0.0925488281,9.67662109 L8.36595703,9.67662109 C9.69553711,9.67662109 10.7732422,8.59878906 10.7732422,7.26933594 C10.7732422,5.93988281 9.69541016,4.86205078 8.36595703,4.86205078 Z" fill="#B9CBEA"></path>
                                <path d="M8.36595703,9.67674805 L0.0925488281,9.67674805 C1.42212891,9.67674805 2.49983398,10.7545801 2.49983398,12.0840332 C2.49983398,13.4134863 1.42200195,14.4913184 0.0925488281,14.4913184 L8.36595703,14.4913184 C9.69553711,14.4913184 10.7732422,13.4134863 10.7732422,12.0840332 C10.7732422,10.7545801 9.69541016,9.67674805 8.36595703,9.67674805 Z" fill="#D8E2F1"></path>
                            </g>
                        </g>
                        <g id="Group" transform="translate(6.220703, 5.966797)">
                            <path d="M32.1929004,17.4871582 L32.1929004,14.7527148 C32.1929004,13.9582422 31.5488672,13.314082 30.7542676,13.314082 L30.5917676,13.314082 C29.9389746,13.314082 29.3764453,12.8722852 29.201123,12.2434863 C28.9379492,11.2995898 28.5753711,10.397207 28.1251953,9.54827148 C27.8259668,8.98396484 27.9185156,8.29245117 28.3700879,7.84087891 L28.4528613,7.75810547 C29.0146289,7.19633789 29.0146289,6.28544922 28.4528613,5.72355469 L26.5193652,3.79005859 C25.9575977,3.22829102 25.046709,3.22829102 24.4848145,3.79005859 L24.4666602,3.80821289 C24.006582,4.26829102 23.2993262,4.35461914 22.7313379,4.03749023 C21.8599316,3.55100586 20.9294922,3.15783203 19.9533496,2.87142578 C19.3441016,2.69267578 18.9288379,2.12938477 18.9288379,1.49436523 L18.9288379,1.48865234 C18.9288379,0.694179688 18.2848047,0.0500195313 17.4902051,0.0500195313 L14.7557617,0.0500195313 C13.9612891,0.0500195313 13.3171289,0.694052734 13.3171289,1.48865234 L13.3171289,1.49436523 C13.3171289,2.12925781 12.9018652,2.69254883 12.2926172,2.87142578 C11.3164746,3.15795898 10.3859082,3.55113281 9.51462891,4.03749023 C8.94651367,4.35461914 8.23925781,4.26829102 7.77930664,3.80821289 L7.76115234,3.79005859 C7.19938477,3.22829102 6.28849609,3.22829102 5.72660156,3.79005859 L3.79310547,5.72355469 C3.23133789,6.28532227 3.23133789,7.19621094 3.79310547,7.75810547 L3.87587891,7.84087891 C4.32757812,8.29257813 4.42,8.98396484 4.12077148,9.54827148 C3.67072266,10.397207 3.30814453,11.2995898 3.04484375,12.2434863 C2.86952148,12.8722852 2.30699219,13.314082 1.65419922,13.314082 L1.49169922,13.314082 C0.697226562,13.314082 0.0530664063,13.9581152 0.0530664063,14.7527148 L0.0530664063,17.4871582 C0.0530664063,18.2816309 0.697099609,18.925791 1.49169922,18.925791 L1.78305664,18.925791 C2.41896484,18.925791 2.97171875,19.345625 3.16138672,19.9527148 C3.44436523,20.8586523 3.81976562,21.7238379 4.27641602,22.5372266 C4.58897461,23.093916 4.48258789,23.7922852 4.03114258,24.2437305 L3.79310547,24.4818945 C3.23133789,25.0436621 3.23133789,25.9545508 3.79310547,26.5164453 L5.72660156,28.4499414 C6.28836914,29.011709 7.19925781,29.011709 7.76115234,28.4499414 L8.06380859,28.1472852 C8.50700195,27.7040918 9.18962891,27.5922461 9.74263672,27.8872852 C10.5482812,28.3168945 11.4022949,28.667793 12.2945215,28.9294434 C12.9047852,29.1084473 13.3172559,29.677832 13.3172559,30.3137402 L13.3172559,30.7513477 C13.3172559,31.5458203 13.9612891,32.1899805 14.7558887,32.1899805 L17.490332,32.1899805 C18.2848047,32.1899805 18.9289648,31.5459473 18.9289648,30.7513477 L18.9289648,30.3137402 C18.9289648,29.677832 19.3414355,29.1083203 19.9516992,28.9294434 C20.8439258,28.667793 21.6979395,28.3170215 22.503584,27.8872852 C23.0565918,27.592373 23.7392187,27.7040918 24.1824121,28.1472852 L24.4850684,28.4499414 C25.0468359,29.011709 25.9577246,29.011709 26.5196191,28.4499414 L28.4531152,26.5164453 C29.0148828,25.9546777 29.0148828,25.0437891 28.4531152,24.4818945 L28.2149512,24.2437305 C27.7635059,23.7922852 27.6571191,23.0937891 27.9696777,22.5372266 C28.4263281,21.7238379 28.8017285,20.8586523 29.084707,19.9527148 C29.274248,19.345752 29.8271289,18.925791 30.4630371,18.925791 L30.7543945,18.925791 C31.5487402,18.925791 32.1929004,18.2817578 32.1929004,17.4871582 L32.1929004,17.4871582 Z" id="Path" fill="#F4FBFF"></path>
                            <g transform="translate(6.728516, 6.601562)">
                                <circle id="Oval" fill="#CBE2FF" cx="9.39453125" cy="9.29855469" r="9.27760742"></circle>
                                <path d="M9.39453125,18.5761621 C12.2640527,18.5761621 14.8287598,17.2728613 16.5305664,15.2265039 C15.1942578,12.6456738 12.5013281,10.8808984 9.39453125,10.8808984 C6.28773437,10.8808984 3.59467773,12.6456738 2.25849609,15.2265039 C3.96030273,17.2728613 6.52500977,18.5761621 9.39453125,18.5761621 L9.39453125,18.5761621 Z" id="Path" fill="#407093"></path>
                                <circle id="Oval" fill="#365E7D" cx="9.39453125" cy="8.26007812" r="3.42836914"></circle>
                            </g>
                        </g>
                    </g>
                </g>
            </g>
        </g>
    </g>
</svg>