<?xml version="1.0" encoding="UTF-8"?>
<svg width="153px" height="153px" viewBox="0 0 153 153" version="1.1" xmlns="http://www.w3.org/2000/svg" xmlns:xlink="http://www.w3.org/1999/xlink">
    <title>Skills_icon</title>
    <defs>
        <linearGradient x1="50.0002738%" y1="100%" x2="50.0002738%" y2="1.43254584e-15%" id="linearGradient-1">
            <stop stop-color="#9F2FFF" offset="0%"></stop>
            <stop stop-color="#0BB1D3" offset="100%"></stop>
        </linearGradient>
    </defs>
    <g id="Wapik" stroke="none" stroke-width="1" fill="none" fill-rule="evenodd">
        <g id="Home-Copy" transform="translate(-641.000000, -801.000000)">
            <g id="Group-6" transform="translate(594.000000, 801.000000)">
                <g id="Skills_icon" transform="translate(47.000000, 0.000000)">
                    <circle id="Oval" stroke="#9126AC" stroke-width="0.5" fill="#FFFFFF" cx="76.5" cy="76.5" r="76.25"></circle>
                    <text id="Skills" font-family="Montserrat-Medium, Montserrat" font-size="18" font-weight="400" fill="#000000">
                        <tspan x="55.5" y="47">Skills</tspan>
                    </text>
                    <g id="capacity" transform="translate(44.500000, 59.000000)" fill="url(#linearGradient-1)" fill-rule="nonzero">
                        <path d="M31.72,16.64 C25.12536,16.64 19.76,22.00536 19.76,28.6 L19.76,35.74584 C18.65032,36.37504 16.64,38.01096 16.64,41.6 C16.64,43.36488 17.4304,44.89264 18.53592,46.176 L15.20376,46.68872 C15.02384,46.71576 14.84912,46.65648 14.72432,46.53168 C14.62032,46.42768 14.56104,46.28416 14.56104,46.13752 L14.56104,36.82952 L15.74664,35.64392 C16.32176,35.0688 16.64,34.30128 16.64,33.48488 C16.64,32.32008 15.99312,31.27384 14.95104,30.7528 L14.56,30.55728 L14.56,30.16 C14.56,28.43984 13.16016,27.04 11.44,27.04 L9.36,27.04 C7.63984,27.04 6.24,28.43984 6.24,30.16 L6.24,47.22224 C6.24,49.2388 7.0252,51.13576 8.45208,52.56368 C10.11192,54.22248 12.39992,55.0108 14.72952,54.71648 L19.76,54.08832 L19.76,64.48 L44.72,64.48 L44.72,54.08832 L49.75048,54.71648 C52.078,55.01184 54.36704,54.22248 56.02792,52.56264 C57.4548,51.13576 58.24,49.2388 58.24,47.22224 L58.24,30.16 C58.24,28.43984 56.84016,27.04 55.12,27.04 L53.04,27.04 C51.31984,27.04 49.92,28.43984 49.92,30.16 L49.92,30.55728 L49.52896,30.7528 C48.48688,31.27384 47.84,32.32112 47.84,33.48488 C47.84,34.30128 48.15824,35.06776 48.7344,35.64496 L49.92,36.83056 L49.92,46.13856 C49.92,46.2852 49.85968,46.42872 49.75672,46.53272 C49.63088,46.65752 49.45304,46.71576 49.27832,46.68976 L48.68968,46.59928 C48.256,45.16928 47.13488,44.21768 46.19992,43.43352 C45.27952,42.66184 44.72,42.15224 44.72,41.6 C44.72,40.16792 44.95816,39.21736 45.2088,38.21272 C45.4792,37.12904 45.76,36.00792 45.76,34.32 C45.76,31.54008 44.3248,29.50168 43.68,28.72584 L43.68,28.6 C43.68,22.00536 38.31464,16.64 31.72,16.64 L31.72,16.64 Z M9.36,29.12 L11.44,29.12 C12.01408,29.12 12.48,29.58696 12.48,30.16 L12.48,31.84272 L14.02024,32.61336 C14.35408,32.77976 14.56,33.1136 14.56,33.48488 C14.56,33.74488 14.45808,33.99032 14.27504,34.1744 L13.08944,35.36 L8.32,35.36 L8.32,30.16 C8.32,29.58696 8.78592,29.12 9.36,29.12 L9.36,29.12 Z M14.4716,52.65312 C12.7764,52.86216 11.12592,52.29536 9.92264,51.09312 C8.88992,50.05832 8.32,48.68344 8.32,47.22224 L8.32,37.44 L12.48,37.44 L12.48,46.13856 C12.48,46.84264 12.75456,47.50512 13.25272,48.00328 C13.84344,48.59504 14.69104,48.87064 15.51888,48.7448 L18.9384,48.21856 C18.80944,48.70528 18.72,49.26792 18.72,49.92 C18.72,50.73952 18.93944,51.43944 19.28264,52.05928 L14.4716,52.65312 Z M21.84,54.83608 C22.76976,55.65976 23.61944,56.4668 23.97408,57.52864 L24.35264,58.6664 L25.42488,58.12976 C26.80912,57.43816 27.85744,56.64672 28.6624,55.82824 L28.15696,62.4 L21.84,62.4 L21.84,54.83608 Z M33.71056,49.92 L36.76296,46.8676 L36.93144,46.8936 L35.79576,52.00416 L33.71056,49.92 Z M32.24,42.64 C28.79864,42.64 26,39.84136 26,36.4 L26,29.6764 L28.09664,28.27864 C30.1704,29.51104 32.52392,30.16 34.9492,30.16 L38.48,30.16 L38.48,36.4 C38.48,39.84136 35.68136,42.64 32.24,42.64 Z M32.24,44.72 C33.34344,44.72 34.39592,44.49952 35.36,44.10744 L35.36,45.32944 L31.80944,48.88 L31.11888,48.88 C30.90984,47.4708 30.28896,46.57224 29.58072,45.8068 C29.81472,45.35752 29.952,44.88328 30.03624,44.41424 C30.74032,44.60768 31.47664,44.72 32.24,44.72 L32.24,44.72 Z M31.12512,50.96 L31.80944,50.96 L32.86088,52.01144 L34.1796,62.4 L30.2432,62.4 L31.12096,50.99328 C31.122,50.98184 31.12304,50.97144 31.12512,50.96 L31.12512,50.96 Z M50.45976,32.61336 L52,31.84272 L52,30.16 C52,29.58696 52.46592,29.12 53.04,29.12 L55.12,29.12 C55.69408,29.12 56.16,29.58696 56.16,30.16 L56.16,35.36 L51.39056,35.36 L50.20496,34.1744 C50.02192,33.99032 49.92,33.74592 49.92,33.48488 C49.92,33.1136 50.12592,32.77976 50.45976,32.61336 Z M51.22728,48.00328 C51.72544,47.50512 52,46.84264 52,46.13856 L52,37.44 L56.16,37.44 L56.16,47.22224 C56.16,48.68344 55.59008,50.05832 54.55736,51.09208 C53.35408,52.29536 51.70152,52.8632 50.0084,52.65312 L44.84896,52.00832 L42.64,52 L42.64,62.4 L36.27624,62.4 L35.26224,54.4128 L37.00424,56.1548 L38.99168,47.2108 L48.96216,48.7448 C49.78688,48.87064 50.63552,48.59504 51.22728,48.00328 L51.22728,48.00328 Z M44.86352,45.0268 C45.32736,45.41576 45.77664,45.79328 46.12712,46.20408 L37.44,44.86768 L37.44,42.8844 C39.33904,41.35768 40.56,39.0208 40.56,36.4 L40.56,28.08 L34.9492,28.08 C32.70176,28.08 30.52608,27.42168 28.65616,26.17472 L28.08,25.78992 L23.92,28.5636 L23.92,36.4 C23.92,39.46072 25.58608,42.13248 28.05296,43.57808 C28.002,44.19272 27.86056,44.80008 27.47472,45.22232 L26.80496,45.9576 L27.508,46.66064 C28.50848,47.66008 29.11168,48.26744 29.11896,49.89608 L29.0524,50.76032 C28.8496,52.08008 28.07792,54.11328 25.43112,55.7492 C24.77696,54.6468 23.8264,53.8096 22.9632,53.0504 C22.52848,52.66768 22.15512,52.3276 21.84,52.00208 L21.84,52 L21.83792,52 C21.18168,51.32192 20.8,50.70728 20.8,49.92 C20.8,49.296 20.91232,48.80096 21.0496,48.42344 C23.23672,49.97512 25.45296,50.8248 25.63496,50.89344 L26.36608,48.94552 C24.23928,48.14888 18.72,45.27432 18.72,41.6 C18.72,38.28448 21.0392,37.41816 21.12864,37.38696 L21.84,37.14984 L21.84,28.6 C21.84,23.15248 26.27248,18.72 31.72,18.72 C37.16752,18.72 41.6,23.15248 41.6,28.6 L41.6,29.55056 L41.90472,29.85528 C41.9224,29.87296 43.68,31.66176 43.68,34.32 C43.68,35.75208 43.44184,36.70264 43.1912,37.70728 C42.9208,38.79096 42.64,39.91208 42.64,41.6 C42.64,43.16312 43.82144,44.1532 44.86352,45.0268 L44.86352,45.0268 Z M39.52,7.28 C39.52,3.2656 36.25336,8.8817842e-16 32.24,8.8817842e-16 C28.22664,8.8817842e-16 24.96,3.2656 24.96,7.28 C24.96,11.2944 28.22664,14.56 32.24,14.56 C36.25336,14.56 39.52,11.2944 39.52,7.28 Z M27.04,7.28 C27.04,4.41272 29.37272,2.08 32.24,2.08 C35.10728,2.08 37.44,4.41272 37.44,7.28 C37.44,10.14728 35.10728,12.48 32.24,12.48 C29.37272,12.48 27.04,10.14728 27.04,7.28 Z M36.09528,5.93528 L31.2,10.83056 L28.38472,8.01528 L29.85528,6.54472 L31.2,7.88944 L34.62472,4.46472 L36.09528,5.93528 Z M9.36,24.96 C11.65424,24.96 13.52,23.09424 13.52,20.8 L13.52,18.93632 C13.52,18.24056 13.8632,17.58744 14.41648,17.23176 C17.11112,15.49912 18.72,12.55696 18.72,9.36 C18.72,6.6976 17.58016,4.15272 15.59376,2.37848 C13.60944,0.60424 10.94288,-0.24024 8.2732,0.06136 C4.05912,0.53872 0.6136,3.93328 0.078,8.13488 C-0.38688,11.7832 1.24072,15.27448 4.3264,17.24632 C4.86512,17.5916 5.2,18.25512 5.2,18.98 L5.2,20.8 C5.2,23.09424 7.06576,24.96 9.36,24.96 Z M9.36,22.88 C8.21288,22.88 7.28,21.94712 7.28,20.8 L11.44,20.8 C11.44,21.94712 10.50712,22.88 9.36,22.88 Z M8.32,9.36 C8.32,8.78696 8.78592,8.32 9.36,8.32 C9.93408,8.32 10.4,8.78696 10.4,9.36 C10.4,9.93304 9.93408,10.4 9.36,10.4 C8.78592,10.4 8.32,9.93304 8.32,9.36 Z M2.1424,8.398 C2.55736,5.13552 5.23536,2.49808 8.5072,2.12784 C8.79632,2.0956 9.08336,2.08 9.36832,2.08 C11.16336,2.08 12.85648,2.72168 14.20848,3.92912 C15.75288,5.3092 16.64,7.28936 16.64,9.36 C16.64,11.8456 15.38888,14.13464 13.29224,15.48248 C12.19192,16.18864 11.52008,17.38776 11.45352,18.72 L10.4,18.72 L10.4,12.28864 C11.60744,11.85808 12.48,10.71408 12.48,9.36 C12.48,7.63984 11.08016,6.24 9.36,6.24 C7.63984,6.24 6.24,7.63984 6.24,9.36 C6.24,10.71408 7.11256,11.85808 8.32,12.28864 L8.32,18.72 L7.2644,18.72 C7.18744,17.37632 6.52496,16.1824 5.44544,15.49392 C3.04616,13.95992 1.77944,11.24136 2.1424,8.398 Z M63.13008,5.35184 L59.12816,1.34992 L56.72056,2.55424 L55.86984,0 L50.2112,0 L49.36048,2.55424 L46.95288,1.34992 L42.95096,5.35184 L44.15424,7.7584 L41.6,8.61016 L41.6,14.2688 L44.1532,15.12056 L42.94992,17.52712 L46.95184,21.52904 L49.35944,20.32472 L50.21016,22.88 L55.8688,22.88 L56.71952,20.32576 L59.12712,21.53008 L63.12904,17.52816 L61.92576,15.1216 L64.48,14.26984 L64.48,8.61016 L61.9268,7.7584 L63.13008,5.35184 Z M62.4,10.10984 L62.4,12.7712 L60.01424,13.5668 L59.83848,14.02544 C59.78648,14.15856 59.73448,14.29064 59.67728,14.4196 L59.47552,14.86992 L60.59976,17.1184 L58.7184,18.99976 L56.46992,17.87552 L56.0196,18.07728 C55.89168,18.13448 55.76168,18.18648 55.6296,18.2364 L55.1668,18.41112 L54.37016,20.8 L51.7088,20.8 L50.91216,18.41008 L50.44936,18.23536 C50.31728,18.18544 50.18728,18.13344 50.05936,18.07624 L49.60904,17.87448 L47.36056,18.99872 L45.4792,17.11736 L46.60344,14.86888 L46.40168,14.41856 C46.34344,14.28856 46.29248,14.15752 46.24048,14.0244 L46.06472,13.56576 L43.68,12.77016 L43.68,10.1088 L46.06576,9.3132 L46.24152,8.85456 C46.29352,8.72144 46.34552,8.58936 46.40272,8.4604 L46.60448,8.01008 L45.48024,5.7616 L47.3616,3.88024 L49.61008,5.00448 L50.0604,4.80272 C50.18832,4.74552 50.31832,4.69352 50.4504,4.6436 L50.9132,4.46888 L51.70984,2.08 L54.3712,2.08 L55.16784,4.46992 L55.63064,4.64464 C55.76272,4.69456 55.89272,4.74656 56.02064,4.80376 L56.47096,5.00552 L58.71944,3.88128 L60.6008,5.76264 L59.47656,8.01112 L59.67832,8.46144 C59.73656,8.59144 59.78752,8.72248 59.83952,8.8556 L60.01528,9.31424 L62.4,10.10984 Z M53.04,6.24 C50.17272,6.24 47.84,8.57272 47.84,11.44 C47.84,14.30728 50.17272,16.64 53.04,16.64 C55.90728,16.64 58.24,14.30728 58.24,11.44 C58.24,8.57272 55.90728,6.24 53.04,6.24 Z M53.04,14.56 C51.31984,14.56 49.92,13.16016 49.92,11.44 C49.92,9.71984 51.31984,8.32 53.04,8.32 C54.76016,8.32 56.16,9.71984 56.16,11.44 C56.16,13.16016 54.76016,14.56 53.04,14.56 Z" id="Shape"></path>
                    </g>
                </g>
            </g>
        </g>
    </g>
</svg>