<?xml version="1.0" encoding="UTF-8"?>
<svg width="153px" height="153px" viewBox="0 0 153 153" version="1.1" xmlns="http://www.w3.org/2000/svg" xmlns:xlink="http://www.w3.org/1999/xlink">
    <title>Tools_icon</title>
    <defs>
        <linearGradient x1="-22.2574597%" y1="59.3235432%" x2="81.0504032%" y2="45.9934964%" id="linearGradient-1">
            <stop stop-color="#003F8A" offset="0%"></stop>
            <stop stop-color="#00D7DF" offset="51.8%"></stop>
            <stop stop-color="#006DF0" offset="100%"></stop>
        </linearGradient>
        <linearGradient x1="-1514.98125%" y1="1614.98125%" x2="1687.5625%" y2="-1587.5625%" id="linearGradient-2">
            <stop stop-color="#003F8A" offset="0%"></stop>
            <stop stop-color="#00D7DF" offset="51.8%"></stop>
            <stop stop-color="#006DF0" offset="100%"></stop>
        </linearGradient>
        <linearGradient x1="-1586.85625%" y1="1686.85625%" x2="1615.6875%" y2="-1515.6875%" id="linearGradient-3">
            <stop stop-color="#003F8A" offset="0%"></stop>
            <stop stop-color="#00D7DF" offset="51.8%"></stop>
            <stop stop-color="#006DF0" offset="100%"></stop>
        </linearGradient>
        <linearGradient x1="-1664.98125%" y1="1764.98125%" x2="1537.5625%" y2="-1437.5625%" id="linearGradient-4">
            <stop stop-color="#003F8A" offset="0%"></stop>
            <stop stop-color="#00D7DF" offset="51.8%"></stop>
            <stop stop-color="#006DF0" offset="100%"></stop>
        </linearGradient>
        <linearGradient x1="44.1569434%" y1="80.3838942%" x2="67.8443972%" y2="-42.7908654%" id="linearGradient-5">
            <stop stop-color="#003F8A" offset="0%"></stop>
            <stop stop-color="#00D7DF" offset="51.8%"></stop>
            <stop stop-color="#006DF0" offset="100%"></stop>
        </linearGradient>
        <linearGradient x1="-8.80108173%" y1="111.153125%" x2="109.636187%" y2="-12.0216346%" id="linearGradient-6">
            <stop stop-color="#003F8A" offset="0%"></stop>
            <stop stop-color="#00D7DF" offset="51.8%"></stop>
            <stop stop-color="#006DF0" offset="100%"></stop>
        </linearGradient>
        <linearGradient x1="-53.6059745%" y1="150.515963%" x2="159.875745%" y2="-39.4678376%" id="linearGradient-7">
            <stop stop-color="#003F8A" offset="0%"></stop>
            <stop stop-color="#00D7DF" offset="51.8%"></stop>
            <stop stop-color="#006DF0" offset="100%"></stop>
        </linearGradient>
        <linearGradient x1="-610.9925%" y1="680.9925%" x2="670.025%" y2="-600.025%" id="linearGradient-8">
            <stop stop-color="#003F8A" offset="0%"></stop>
            <stop stop-color="#00D7DF" offset="51.8%"></stop>
            <stop stop-color="#006DF0" offset="100%"></stop>
        </linearGradient>
        <linearGradient x1="-965.9925%" y1="1065.9925%" x2="315.025%" y2="-215.025%" id="linearGradient-9">
            <stop stop-color="#003F8A" offset="0%"></stop>
            <stop stop-color="#00D7DF" offset="51.8%"></stop>
            <stop stop-color="#006DF0" offset="100%"></stop>
        </linearGradient>
        <linearGradient x1="-560.9925%" y1="690.9925%" x2="720.025%" y2="-590.025%" id="linearGradient-10">
            <stop stop-color="#003F8A" offset="0%"></stop>
            <stop stop-color="#00D7DF" offset="51.8%"></stop>
            <stop stop-color="#006DF0" offset="100%"></stop>
        </linearGradient>
        <linearGradient x1="-205.9925%" y1="305.9925%" x2="1075.025%" y2="-975.025%" id="linearGradient-11">
            <stop stop-color="#003F8A" offset="0%"></stop>
            <stop stop-color="#00D7DF" offset="51.8%"></stop>
            <stop stop-color="#006DF0" offset="100%"></stop>
        </linearGradient>
        <linearGradient x1="-328.329167%" y1="134.073148%" x2="383.347222%" y2="-24.0771605%" id="linearGradient-12">
            <stop stop-color="#003F8A" offset="0%"></stop>
            <stop stop-color="#00D7DF" offset="51.8%"></stop>
            <stop stop-color="#006DF0" offset="100%"></stop>
        </linearGradient>
        <linearGradient x1="-732.490625%" y1="441.245313%" x2="868.78125%" y2="-359.390625%" id="linearGradient-13">
            <stop stop-color="#003F8A" offset="0%"></stop>
            <stop stop-color="#00D7DF" offset="51.8%"></stop>
            <stop stop-color="#006DF0" offset="100%"></stop>
        </linearGradient>
        <linearGradient x1="-454.99375%" y1="218.33125%" x2="612.520833%" y2="-137.506944%" id="linearGradient-14">
            <stop stop-color="#003F8A" offset="0%"></stop>
            <stop stop-color="#00D7DF" offset="51.8%"></stop>
            <stop stop-color="#006DF0" offset="100%"></stop>
        </linearGradient>
        <linearGradient x1="-757.490625%" y1="453.745313%" x2="843.78125%" y2="-346.890625%" id="linearGradient-15">
            <stop stop-color="#003F8A" offset="0%"></stop>
            <stop stop-color="#00D7DF" offset="51.8%"></stop>
            <stop stop-color="#006DF0" offset="100%"></stop>
        </linearGradient>
    </defs>
    <g id="Wapik" stroke="none" stroke-width="1" fill="none" fill-rule="evenodd">
        <g id="Home-Copy" transform="translate(-293.000000, -801.000000)">
            <g id="Group-6-Copy" transform="translate(246.000000, 801.000000)">
                <g id="Tools_icon" transform="translate(47.000000, 0.000000)">
                    <circle id="Oval" stroke="#3798A4" stroke-width="0.5" fill="#FFFFFF" cx="76.5" cy="76.5" r="76.25"></circle>
                    <text id="Software" font-family="Montserrat-Medium, Montserrat" font-size="18" font-weight="400" fill="#000000">
                        <tspan x="36" y="47">Software</tspan>
                    </text>
                    <g id="software" transform="translate(47.000000, 62.000000)" fill-rule="nonzero">
                        <path d="M58.56,0 L0.96,0 C0.42980664,0 0,0.42980664 0,0.96 L0,6.72 C0,7.25019336 0.42980664,7.68 0.96,7.68 L58.56,7.68 C59.0901934,7.68 59.52,7.25019336 59.52,6.72 L59.52,0.96 C59.52,0.42980664 59.0901934,0 58.56,0 Z M11.52,5.76 L1.92,5.76 L1.92,1.92 L11.52,1.92 L11.52,5.76 Z M57.6,5.76 L13.44,5.76 L13.44,1.92 L57.6,1.92 L57.6,5.76 Z" id="Shape" fill="url(#linearGradient-1)"></path>
                        <circle id="Oval" fill="url(#linearGradient-2)" cx="3.84" cy="3.84" r="1"></circle>
                        <circle id="Oval" fill="url(#linearGradient-3)" cx="6.6" cy="3.84" r="1"></circle>
                        <circle id="Oval" fill="url(#linearGradient-4)" cx="9.6" cy="3.84" r="1"></circle>
                        <path d="M8.64,9.6 L0.96,9.6 C0.42980664,9.6 0,10.0298066 0,10.56 L0,58.56 C0,59.0901934 0.42980664,59.52 0.96,59.52 L8.64,59.52 C9.17019336,59.52 9.6,59.0901934 9.6,58.56 L9.6,10.56 C9.6,10.0298066 9.17019336,9.6 8.64,9.6 Z M3.84,57.6 L1.92,57.6 L1.92,55.68 L3.84,55.68 L3.84,57.6 Z M3.84,53.76 L1.92,53.76 L1.92,51.84 L3.84,51.84 L3.84,53.76 Z M3.84,49.92 L1.92,49.92 L1.92,48 L3.84,48 L3.84,49.92 Z M3.84,46.08 L1.92,46.08 L1.92,44.16 L3.84,44.16 L3.84,46.08 Z M3.84,42.24 L1.92,42.24 L1.92,40.32 L3.84,40.32 L3.84,42.24 Z M3.84,38.4 L1.92,38.4 L1.92,36.48 L3.84,36.48 L3.84,38.4 Z M3.84,34.56 L1.92,34.56 L1.92,32.64 L3.84,32.64 L3.84,34.56 Z M3.84,30.72 L1.92,30.72 L1.92,28.8 L3.84,28.8 L3.84,30.72 Z M3.84,26.88 L1.92,26.88 L1.92,24.96 L3.84,24.96 L3.84,26.88 Z M3.84,23.04 L1.92,23.04 L1.92,21.12 L3.84,21.12 L3.84,23.04 Z M3.84,19.2 L1.92,19.2 L1.92,17.28 L3.84,17.28 L3.84,19.2 Z M7.68,57.6 L5.76,57.6 L5.76,55.68 L7.68,55.68 L7.68,57.6 Z M7.68,53.76 L5.76,53.76 L5.76,51.84 L7.68,51.84 L7.68,53.76 Z M7.68,49.92 L5.76,49.92 L5.76,48 L7.68,48 L7.68,49.92 Z M7.68,46.08 L5.76,46.08 L5.76,44.16 L7.68,44.16 L7.68,46.08 Z M7.68,42.24 L5.76,42.24 L5.76,40.32 L7.68,40.32 L7.68,42.24 Z M7.68,38.4 L5.76,38.4 L5.76,36.48 L7.68,36.48 L7.68,38.4 Z M7.68,34.56 L5.76,34.56 L5.76,32.64 L7.68,32.64 L7.68,34.56 Z M7.68,30.72 L5.76,30.72 L5.76,28.8 L7.68,28.8 L7.68,30.72 Z M7.68,26.88 L5.76,26.88 L5.76,24.96 L7.68,24.96 L7.68,26.88 Z M7.68,23.04 L5.76,23.04 L5.76,21.12 L7.68,21.12 L7.68,23.04 Z M7.68,19.2 L5.76,19.2 L5.76,17.28 L7.68,17.28 L7.68,19.2 Z M7.68,15.36 L1.92,15.36 L1.92,11.52 L7.68,11.52 L7.68,15.36 Z" id="Shape" fill="url(#linearGradient-5)"></path>
                        <path d="M58.56,9.6 L12.48,9.6 C11.9498066,9.6 11.52,10.0298066 11.52,10.56 L11.52,58.56 C11.52,59.0901934 11.9498066,59.52 12.48,59.52 L58.56,59.52 C59.0901934,59.52 59.52,59.0901934 59.52,58.56 L59.52,10.56 C59.52,10.0298066 59.0901934,9.6 58.56,9.6 Z M57.6,57.6 L13.44,57.6 L13.44,11.52 L57.6,11.52 L57.6,57.6 Z" id="Shape" fill="url(#linearGradient-6)"></path>
                        <path d="M44.5152,28.7688 C44.1618067,24.0621553 40.2398932,20.4236747 35.52,20.4236747 C30.8001068,20.4236747 26.8781933,24.0621553 26.5248,28.7688 C23.3469667,30.1580353 21.2469034,33.2460322 21.1228177,36.7120388 C20.998732,40.1780454 22.8725965,43.408312 25.9429501,45.0212372 C29.0133038,46.6341625 32.7364575,46.3441347 35.52,44.2752 C38.3035454,46.3426224 42.0256937,46.6316968 45.0950625,45.0188312 C48.1644313,43.4059656 50.0377558,40.1766302 49.9141071,36.7115081 C49.7904585,33.2463859 47.691722,30.1587886 44.5152,28.7688 L44.5152,28.7688 Z M36.9564,31.1244 C38.6117751,30.0172252 40.6565442,29.6574852 42.5904,30.1332 C42.3658706,32.4220723 41.0483976,34.4610931 39.054,35.6064 C38.7881659,33.9454937 38.0613921,32.3925759 36.9564,31.1244 L36.9564,31.1244 Z M37.2144,36.3468 C36.1013669,36.6203981 34.9386331,36.6203981 33.8256,36.3468 C33.9671359,34.8861667 34.5592602,33.5056616 35.52,32.3964 C36.4807398,33.5056616 37.0728641,34.8861667 37.2144,36.3468 Z M35.52,22.344 C38.9424477,22.3490538 41.8764033,24.7899838 42.504,28.1544 C40.0500493,27.7058643 37.5200891,28.2979272 35.52,29.7888 C33.5199109,28.2979272 30.9899507,27.7058643 28.536,28.1544 C29.1635967,24.7899838 32.0975523,22.3490538 35.52,22.344 L35.52,22.344 Z M30.144,29.9279964 C31.5468924,29.9265835 32.9184094,30.3430936 34.0836,31.1244 C32.9786079,32.3925759 32.2518341,33.9454937 31.986,35.6064 C29.9916024,34.4610931 28.6741294,32.4220723 28.4496,30.1332 C29.0041036,29.9969686 29.5730068,29.9280717 30.144,29.9279964 L30.144,29.9279964 Z M30.144,44.1360036 C26.9252723,44.1371715 24.1082612,41.9733219 23.2794932,38.8631204 C22.4507253,35.752919 23.8174767,32.4742322 26.61,30.8736 C27.0995806,33.9023424 29.0909574,36.476495 31.8996,37.7112 C32.0449772,39.6438583 32.8110428,41.4777857 34.0836,42.9396 C32.9184094,43.7209064 31.5468924,44.1374165 30.144,44.1360036 L30.144,44.1360036 Z M33.912,38.3256 C34.975114,38.5208004 36.064886,38.5208004 37.128,38.3256 C36.8986789,39.5627561 36.3436111,40.7163859 35.52,41.6676 C34.6963889,40.7163859 34.1413211,39.5627561 33.912,38.3256 L33.912,38.3256 Z M40.896,44.1360036 C39.4931076,44.1374165 38.1215906,43.7209064 36.9564,42.9396 C38.2289572,41.4777857 38.9950228,39.6438583 39.1404,37.7112 C41.9490426,36.476495 43.9404194,33.9023424 44.43,30.8736 C47.2225233,32.4742322 48.5892747,35.752919 47.7605068,38.8631204 C46.9317388,41.9733219 44.1147277,44.1371715 40.896,44.1360036 L40.896,44.1360036 Z" id="Shape" fill="url(#linearGradient-7)"></path>
                        <path d="M16.32,18.24 C16.8501934,18.24 17.28,17.8101934 17.28,17.28 L17.28,15.36 L19.2,15.36 C19.7301934,15.36 20.16,14.9301934 20.16,14.4 C20.16,13.8698066 19.7301934,13.44 19.2,13.44 L16.32,13.44 C15.7898066,13.44 15.36,13.8698066 15.36,14.4 L15.36,17.28 C15.36,17.8101934 15.7898066,18.24 16.32,18.24 Z" id="Path" fill="url(#linearGradient-8)"></path>
                        <path d="M51.84,15.36 L53.76,15.36 L53.76,17.28 C53.76,17.8101934 54.1898066,18.24 54.72,18.24 C55.2501934,18.24 55.68,17.8101934 55.68,17.28 L55.68,14.4 C55.68,13.8698066 55.2501934,13.44 54.72,13.44 L51.84,13.44 C51.3098066,13.44 50.88,13.8698066 50.88,14.4 C50.88,14.9301934 51.3098066,15.36 51.84,15.36 Z" id="Path" fill="url(#linearGradient-9)"></path>
                        <path d="M54.72,50.88 C54.1898066,50.88 53.76,51.3098066 53.76,51.84 L53.76,53.76 L51.84,53.76 C51.3098066,53.76 50.88,54.1898066 50.88,54.72 C50.88,55.2501934 51.3098066,55.68 51.84,55.68 L54.72,55.68 C55.2501934,55.68 55.68,55.2501934 55.68,54.72 L55.68,51.84 C55.68,51.3098066 55.2501934,50.88 54.72,50.88 Z" id="Path" fill="url(#linearGradient-10)"></path>
                        <path d="M16.32,55.68 L19.2,55.68 C19.7301934,55.68 20.16,55.2501934 20.16,54.72 C20.16,54.1898066 19.7301934,53.76 19.2,53.76 L17.28,53.76 L17.28,51.84 C17.28,51.3098066 16.8501934,50.88 16.32,50.88 C15.7898066,50.88 15.36,51.3098066 15.36,51.84 L15.36,54.72 C15.36,55.2501934 15.7898066,55.68 16.32,55.68 Z" id="Path" fill="url(#linearGradient-11)"></path>
                        <path d="M19.2,18.24 C19.2,18.7701934 19.6298066,19.2 20.16,19.2 L26.88,19.2 C27.4101934,19.2 27.84,18.7701934 27.84,18.24 C27.84,17.7098066 27.4101934,17.28 26.88,17.28 L20.16,17.28 C19.6298066,17.28 19.2,17.7098066 19.2,18.24 Z" id="Path" fill="url(#linearGradient-12)"></path>
                        <path d="M23.04,21.12 C23.04,20.5898066 22.6101934,20.16 22.08,20.16 L20.16,20.16 C19.6298066,20.16 19.2,20.5898066 19.2,21.12 C19.2,21.6501934 19.6298066,22.08 20.16,22.08 L22.08,22.08 C22.6101934,22.08 23.04,21.6501934 23.04,21.12 Z" id="Path" fill="url(#linearGradient-13)"></path>
                        <path d="M51.84,50.88 C51.84,50.3498066 51.4101934,49.92 50.88,49.92 L47.04,49.92 C46.5098066,49.92 46.08,50.3498066 46.08,50.88 C46.08,51.4101934 46.5098066,51.84 47.04,51.84 L50.88,51.84 C51.4101934,51.84 51.84,51.4101934 51.84,50.88 Z" id="Path" fill="url(#linearGradient-14)"></path>
                        <path d="M48,48 C48,48.5301934 48.4298066,48.96 48.96,48.96 L50.88,48.96 C51.4101934,48.96 51.84,48.5301934 51.84,48 C51.84,47.4698066 51.4101934,47.04 50.88,47.04 L48.96,47.04 C48.4298066,47.04 48,47.4698066 48,48 Z" id="Path" fill="url(#linearGradient-15)"></path>
                    </g>
                </g>
            </g>
        </g>
    </g>
</svg>