<?xml version="1.0" encoding="UTF-8"?>
<svg width="647px" height="436px" viewBox="0 0 647 436" version="1.1" xmlns="http://www.w3.org/2000/svg" xmlns:xlink="http://www.w3.org/1999/xlink">
    <title>ui-ux-designer (1)</title>
    <g id="Page-1" stroke="none" stroke-width="1" fill="none" fill-rule="evenodd">
        <g id="ui-ux-designer-(1)" transform="translate(1.000000, 0.000000)">
            <path d="M25.8,232.7 C50.2,187.9 99.6,153.7 111.9,148.2 C191.5,112.5 264.6,44.6 345.4,15.6 C426.2,-13.4 518.6,0.4 607,116.8 C654.4,179.3 657.8,241.7 621,280 C483.6,423.3 320.5,470.1 148.3,409.7 C114.3,397.8 79.8,381.6 45.2,349.3 C2.8,309.9 6.6,268.1 25.8,232.7 Z" id="Path" fill="#CCE9FF" fill-rule="nonzero" opacity="0.5"></path>
            <path d="M28.1,187 C59.1,146.5 113.1,120.2 126.1,116.6 C210.2,93.4 292.8,37.4 377.1,21.1 C461.4,4.8 550.6,32.4 620.3,160.9 C657.7,229.9 651.5,292.1 609.3,324.3 C451.5,445 283.2,466.5 122.2,380.6 C90.4,363.6 58.7,342.4 29.5,305.2 C-6.4,259.8 3.7,219 28.1,187 Z" id="Path" fill="#CCE9FF" fill-rule="nonzero"></path>
            <path d="M356.1,225.3 C356.1,225.3 350.4,196.5 350.4,196.5 L347.3,180.7 C344.6,159.1 341.6,120.7 343.5,99.1 C346.8,62 311.8,33.5 276.5,35.2 C240.7,37 224.6,63.2 216.8,95.5 C204.5,146.8 232.3,186 214,223.7 C213.4,225 214.3,226.6 215.8,226.6 C227.1,226.9 265.1,226.4 265.1,226.4 L265.1,153.6 C265.1,153.6 270.2,161.5 278.5,171.1 L266.7,239.5 L356.1,225.3 Z" id="Path" fill="#3F2525" fill-rule="nonzero"></path>
            <path d="M293.4,186.4 L347,210.1 C359.1,215.4 368.2,226.1 371.8,239.1 L422.5,421.5 L161.5,421.5 C142.3,421.5 127.2,404.5 129.1,384.8 L142.9,243.1 C144.5,226.4 155.1,212.1 170.2,205.8 L220.7,185.1 L293.4,186.4 Z" id="Path" fill="#720B98" fill-rule="nonzero"></path>
            <path d="M287.2,421.5 L287.2,379.7 L206.4,371.4 L218.3,302.7 L214.5,213.4 L186.3,198 C186.3,198 150.6,196.7 142.9,243.1 C141.2,266.7 129.1,384.8 129.1,384.8 C129.1,384.8 126,419.5 161.5,421.5 C160.6,422.8 277.2,421.5 277.2,421.5 L287.2,421.5 Z" id="Path" fill="#720B98" fill-rule="nonzero"></path>
            <path d="M291.4,187.7 C294.1,188.3 319.8,200.3 323.2,216.8 C326.6,233.3 310.7,259.6 267.8,241.9 C264.8,242 291.4,187.7 291.4,187.7 Z" id="Path" fill="#FFBE55" fill-rule="nonzero"></path>
            <path d="M235.5,121.3 C235.5,121.3 258.9,115.6 270.3,75.8 C269,79 237.4,75.2 235.5,121.3 Z" id="Path" fill="#064A6F" fill-rule="nonzero"></path>
            <path d="M300.5,163.6 L292.9,211.6 C292.9,211.6 263.8,240.7 251.2,206.5 C247.4,180 258.4,150.9 258.4,150.9 L300.5,163.6 Z" id="Path" fill="#FCD2B1" fill-rule="nonzero"></path>
            <path d="M300.5,163.9 C300.5,163.9 302.1,186.7 261.8,177.9 C253.1,165.1 257.5,140.1 257.5,140.1 L300.5,163.9 Z" id="Path" fill="#EFBD9C" fill-rule="nonzero"></path>
            <path d="M245.6,116.6 C245.6,116.6 244.9,160 278.5,166.3 C289,169.1 325.4,171.2 328.9,121.5 C329.6,79.5 328.9,87.2 328.9,87.2 L253.3,87.2 L245.6,116.6 Z" id="Path" fill="#FCD2B1" fill-rule="nonzero"></path>
            <path d="M287.1,385.8 C287.1,385.8 313.6,391 309.8,411.7 C295.3,412.4 284.9,412.1 284.9,412.1 L287.1,385.8 Z" id="Path" fill="#FCD2B1" fill-rule="nonzero"></path>
            <circle id="Oval" fill="#FFBE55" fill-rule="nonzero" cx="287.3" cy="306.4" r="4.7"></circle>
            <circle id="Oval" fill="#FFBE55" fill-rule="nonzero" cx="287.6" cy="357" r="4.7"></circle>
            <polygon id="Path" fill="#BBBBBB" fill-rule="nonzero" points="287.1 385.8 206.1 365.2 216.3 315.2 223.4 314.7 212 362.1 287.4 384.8"></polygon>
            <path d="M235.3,66.9 C215.2,84.9 215,110.6 214.1,135.6 C213.6,148 213,161 208.2,172.6 C202.9,185.5 192.1,195 184.8,206.7 C178.1,217.5 177,234.4 188.1,240.7 C193.5,243.8 200.4,243.4 205.7,246.6 C212.2,250.5 214.7,259 214.4,266.6 C214.1,274.2 211.6,281.6 210.5,289.1 C208.6,302.9 213.9,319.8 227.4,323.1 C236.4,325.3 245.5,320.8 253.6,316.5 C263.4,311.2 273.2,306 282.1,299.4 C289.6,293.9 296.5,287.3 300.4,278.8 C307.6,262.9 302.2,244.2 293.9,228.8 C285.6,213.5 274.5,199.5 269.3,182.9 C260.8,156.1 269,127.2 271.7,99.2 C272.7,88.2 272.7,76.2 266.3,67.1 C253.1,48.2 222.9,62.2 226.8,84.3" id="Path" fill="#3F2525" fill-rule="nonzero"></path>
            <rect id="Rectangle" fill="#2A94F4" fill-rule="nonzero" x="59.2" y="420.2" width="527" height="13.9"></rect>
            <line x1="27" y1="152.9" x2="77" y2="146.8" id="Path" stroke="#4C8DC8" stroke-width="0.5"></line>
            <rect id="Rectangle" fill="#FFFFFF" fill-rule="nonzero" transform="translate(72.249250, 117.017575) rotate(-18.088892) translate(-72.249250, -117.017575) " x="12.297733" y="74.3164945" width="119.903034" height="85.402161"></rect>
            <rect id="Rectangle" fill="#FFBE55" fill-rule="nonzero" transform="translate(60.087385, 79.878260) rotate(-18.088892) translate(-60.087385, -79.878260) " x="0.18586925" y="76.2281676" width="119.803032" height="7.30018472"></rect>
            <circle id="Oval" fill="#F7F7F7" fill-rule="nonzero" cx="8.2" cy="97.3" r="1.5"></circle>
            <circle id="Oval" fill="#F7F7F7" fill-rule="nonzero" cx="13.5" cy="95.6" r="1.5"></circle>
            <circle id="Oval" fill="#FFFFFF" fill-rule="nonzero" cx="18.5" cy="94" r="1.5"></circle>
            <rect id="Rectangle" stroke="#CCE9FF" stroke-width="1.0000253" transform="translate(73.534655, 120.868635) rotate(-18.088892) translate(-73.534655, -120.868635) " x="18.1832544" y="86.4177633" width="110.702801" height="68.9017435"></rect>
            <g id="Group" transform="translate(17.000000, 79.000000)" fill="#2A94F4" fill-rule="nonzero">
                <path d="M5.9,47.5 L0.2,30 L0.5,29.9 L48.6,14.2 L54.3,31.8 L54,31.9 L5.9,47.5 Z M0.9,30.3 L6.3,46.8 L53.6,31.4 L48.2,14.9 L0.9,30.3 Z" id="Shape"></path>
                <path d="M70.2,66.9 L70.1,66.6 L59.3,33.5 L59.6,33.4 L99.9,20.2 L100,20.5 L110.8,53.6 L110.5,53.7 L70.2,66.9 Z M60,34 L70.5,66.3 L110,53.4 L99.5,21.1 L60,34 Z" id="Shape"></path>
                <polygon id="Path" points="8 51.9 7.8 51.4 55.6 35.8 55.8 36.3"></polygon>
                <polygon id="Path" points="58.5 29.4 58.4 28.8 98 15.9 98.2 16.4"></polygon>
                <polygon id="Path" points="56.8 23.9 56.6 23.4 96.2 10.4 96.4 11"></polygon>
                <polygon id="Path" points="55.1 18.7 54.9 18.1 94.5 5.2 94.7 5.7"></polygon>
                <polygon id="Path" points="53.5 13.9 53.3 13.3 92.9 0.4 93.1 0.9"></polygon>
                <polygon id="Path" points="9.7 57.2 9.5 56.6 57.3 41 57.5 41.5"></polygon>
                <polygon id="Path" points="11.3 62.1 11.1 61.5 58.9 45.9 59.1 46.5"></polygon>
                <polygon id="Path" points="13 67.2 12.8 66.7 60.6 51 60.8 51.6"></polygon>
                <polygon id="Path" points="14.7 72.4 14.5 71.9 62.3 56.3 62.5 56.8"></polygon>
                <polygon id="Path" points="16.3 77.3 16.1 76.8 63.9 61.2 64.1 61.7"></polygon>
                <polygon id="Path" points="18.2 82.5 18 82 65.8 66.3 65.9 66.9"></polygon>
            </g>
            <rect id="Rectangle" stroke="#2A94F4" stroke-width="1.0000253" transform="translate(72.249250, 117.017575) rotate(-18.088892) translate(-72.249250, -117.017575) " x="12.297733" y="74.3164945" width="119.903034" height="85.402161"></rect>
            <polygon id="Path" fill="#2A94F4" fill-rule="nonzero" points="187.7 22.4 182.1 22.4 182.1 16.8 179.8 16.8 179.8 22.4 174.2 22.4 174.2 24.7 179.8 24.7 179.8 30.3 182.1 30.3 182.1 24.7 187.7 24.7"></polygon>
            <polygon id="Path" fill="#2A94F4" fill-rule="nonzero" points="383.2 172.6 378.6 172.6 378.6 168 376.7 168 376.7 172.6 372 172.6 372 174.5 376.7 174.5 376.7 179.1 378.6 179.1 378.6 174.5 383.2 174.5"></polygon>
            <polygon id="Path" fill="#FFBE55" fill-rule="nonzero" points="49.6 280.1 44 280.1 44 274.5 41.7 274.5 41.7 280.1 36.1 280.1 36.1 282.4 41.7 282.4 41.7 288 44 288 44 282.4 49.6 282.4"></polygon>
            <polygon id="Path" fill="#FFBE55" fill-rule="nonzero" points="594.5 282.6 584 282.6 584 272 579.6 272 579.6 282.6 569 282.6 569 286.9 579.6 286.9 579.6 297.5 584 297.5 584 286.9 594.5 286.9"></polygon>
            <g id="Group" transform="translate(396.000000, 0.000000)" fill-rule="nonzero">
                <path d="M51.4,18.5 C38,13.1 22.8,20 17.9,33.4 C15.3,40.6 16.4,48.4 19.2,56.7 C20.2,59.7 20.1,63 19,66 L18.9,66.3 C17.3,70.6 19.6,75.5 23.9,77 L32.4,80.1 C36.7,81.7 41.6,79.4 43.1,75.1 C44.2,72 46.4,69.4 49.2,67.8 C57.6,63 64.1,57.6 66.4,49.1 C69.9,36.6 63.4,23.3 51.4,18.5 Z" id="Path" fill="#FFBE55"></path>
                <path d="M44.5,79.2 L42.1,78.3 L43.3,75 L19,66.1 L17.8,69.4 L16,68.7 C15.1,68.4 14.1,68.8 13.7,69.8 L13.1,71.5 C12.8,72.4 13.2,73.4 14.2,73.8 L16,74.5 L15.2,76.7 L13.4,76 C12.5,75.7 11.5,76.1 11.1,77.1 L10.5,78.8 C10.2,79.7 10.6,80.7 11.6,81.1 L13.5,81.8 C13.1,84.5 14.6,87.1 17.2,88.1 L17.8,88.3 C17.3,91.5 19.1,94.7 22.3,95.9 C25.5,97.1 28.9,95.8 30.6,93 C33.2,94 36.1,92.9 37.5,90.6 L40,91.5 C40.9,91.8 41.9,91.4 42.3,90.4 L42.9,88.7 C43.2,87.8 42.8,86.8 41.8,86.4 L39.4,85.5 L40.2,83.3 L42.6,84.2 C43.5,84.5 44.5,84.1 44.9,83.1 L45.5,81.4 C45.9,80.5 45.5,79.5 44.5,79.2 Z" id="Path" fill="#0B4870"></path>
                <path d="M55.5,13.2 L51.9,11.9 C51.4,11.7 51.1,11.1 51.3,10.6 L54.9,0.8 C55.1,0.3 55.7,-5.68434189e-14 56.2,0.2 L59.8,1.5 C60.3,1.7 60.6,2.3 60.4,2.8 L56.8,12.6 C56.7,13.1 56.1,13.4 55.5,13.2 Z" id="Path" fill="#FFBE55"></path>
                <path d="M71.5,52.3 L72.8,48.7 C73,48.2 73.6,47.9 74.1,48.1 L83.9,51.7 C84.4,51.9 84.7,52.5 84.5,53 L83.2,56.6 C83,57.1 82.4,57.4 81.9,57.2 L72.1,53.6 C71.6,53.5 71.3,52.9 71.5,52.3 Z" id="Path" fill="#FFBE55"></path>
                <path d="M0.7,26.4 L2,22.8 C2.2,22.3 2.8,22 3.3,22.2 L13.1,25.8 C13.6,26 13.9,26.6 13.7,27.1 L12.4,30.7 C12.2,31.2 11.6,31.5 11.1,31.3 L1.3,27.7 C0.8,27.5 0.5,26.9 0.7,26.4 Z" id="Path" fill="#FFBE55"></path>
                <path d="M72.1,32.7 L70.5,29.2 C70.3,28.7 70.5,28.1 71,27.8 L80.5,23.4 C81,23.2 81.6,23.4 81.9,23.9 L83.5,27.4 C83.7,27.9 83.5,28.5 83,28.8 L73.5,33.2 C72.9,33.5 72.3,33.2 72.1,32.7 Z" id="Path" fill="#FFBE55"></path>
                <path d="M23.8,15 L27.3,13.4 C27.8,13.2 28,12.5 27.8,12 L23.4,2.5 C23.2,2 22.5,1.8 22,2 L18.5,3.6 C18,3.8 17.8,4.5 18,5 L22.4,14.5 C22.7,15 23.3,15.2 23.8,15 Z" id="Path" fill="#F6B95F"></path>
            </g>
            <g id="Group-2" transform="translate(87.265625, 219.515625) rotate(-29.000000) translate(-87.265625, -219.515625) translate(13.765625, 173.515625)">
                <rect id="Rectangle" stroke="#2A94F4" stroke-width="0.999962639" transform="translate(73.086058, 46.495798) rotate(-11.116655) translate(-73.086058, -46.495798) " x="8.88845659" y="16.2969263" width="128.395203" height="60.3977434"></rect>
                <rect id="Rectangle" stroke="#4C8DC8" stroke-width="0.749971979" fill="#FFFFFF" fill-rule="nonzero" transform="translate(15.892818, 87.502958) rotate(-11.116655) translate(-15.892818, -87.502958) " x="12.09296" y="83.7031" width="7.59971606" height="7.59971606"></rect>
                <rect id="Rectangle" stroke="#4C8DC8" stroke-width="0.749971979" fill="#FFFFFF" fill-rule="nonzero" transform="translate(4.799858, 29.689178) rotate(-11.116655) translate(-4.799858, -29.689178) " x="1" y="25.88932" width="7.59971606" height="7.59971606"></rect>
                <rect id="Rectangle" stroke="#4C8DC8" stroke-width="0.749971979" fill="#FFFFFF" fill-rule="nonzero" transform="translate(130.092198, 4.799858) rotate(-11.116655) translate(-130.092198, -4.799858) " x="126.29234" y="1" width="7.59971606" height="7.59971606"></rect>
                <rect id="Rectangle" stroke="#4C8DC8" stroke-width="0.749971979" fill="#FFFFFF" fill-rule="nonzero" transform="translate(141.892358, 63.806818) rotate(-11.116655) translate(-141.892358, -63.806818) " x="138.0925" y="60.00696" width="7.59971606" height="7.59971606"></rect>
                <g id="Group" transform="translate(17.815378, 24.108258)" fill="#2A94F4" fill-rule="nonzero">
                    <path d="M3.7,37.7 L0.4,21.1 L5.6,20.1 L9.1,38 C9.4,39.3 9.9,40.3 10.7,40.9 C11.5,41.5 12.5,41.7 13.7,41.5 C14.9,41.3 15.7,40.7 16.3,39.8 C16.8,38.9 17,37.8 16.7,36.5 L13.2,18.6 L18.4,17.6 L21.7,34.2 C22.4,37.8 22.2,40.5 21.1,42.4 C20,44.3 17.9,45.6 14.7,46.2 C11.6,46.8 9.1,46.5 7.4,45.1 C5.7,43.7 4.4,41.3 3.7,37.7 Z" id="Path"></path>
                    <polygon id="Path" points="24.2 21.2 23.3 16.6 38.9 13.5 39.8 18.1 34.6 19.1 38 36.2 43.2 35.2 44.1 39.8 28.5 42.9 27.6 38.3 32.8 37.3 29.4 20.2"></polygon>
                    <polygon id="Path" points="57.8 9.9 61.7 9.1 53.7 41.4 49.8 42.2"></polygon>
                    <path d="M68.8,24.9 L65.5,8.3 L70.7,7.3 L74.2,25.2 C74.5,26.5 75,27.5 75.8,28.1 C76.6,28.7 77.6,28.9 78.8,28.7 C80,28.5 80.8,27.9 81.4,27 C81.9,26.1 82.1,25 81.8,23.7 L78.3,5.8 L83.5,4.8 L86.8,21.4 C87.5,25 87.3,27.7 86.2,29.6 C85.1,31.5 83,32.8 79.8,33.4 C76.7,34 74.2,33.7 72.5,32.3 C70.7,30.9 69.4,28.5 68.8,24.9 Z" id="Path"></path>
                    <polygon id="Path" points="111.7 26.5 106.3 27.6 99.6 19.9 96.3 29.6 90.9 30.7 96 15.9 86 4.5 91.4 3.4 97.8 10.8 101 1.5 106.4 0.4 101.5 14.8"></polygon>
                </g>
            </g>
            <path d="M509.1,272 L355.6,272 C345.2,272 336.5,279.8 335.3,290.1 L321.4,410.8 L271.1,410.8 C268.4,410.8 266.2,413 266.2,415.7 C266.2,418.4 268.4,420.6 271.1,420.6 L320.3,420.6 L329.1,420.6 L514.9,420.6 L529.3,294.9 C530.7,282.6 521.3,272 509.1,272 Z" id="Path" fill="#FFBE55" fill-rule="nonzero"></path>
            <circle id="Oval" fill="#F7F7F7" fill-rule="nonzero" cx="426.3" cy="352.6" r="19"></circle>
        </g>
    </g>
</svg>